<?xml version="1.0" encoding="UTF-8" standalone="no"?>
<!-- Created with Inkscape (http://www.inkscape.org/) -->

<svg
   xmlns:dc="http://purl.org/dc/elements/1.1/"
   xmlns:cc="http://creativecommons.org/ns#"
   xmlns:rdf="http://www.w3.org/1999/02/22-rdf-syntax-ns#"
   xmlns:svg="http://www.w3.org/2000/svg"
   xmlns="http://www.w3.org/2000/svg"
   xmlns:sodipodi="http://sodipodi.sourceforge.net/DTD/sodipodi-0.dtd"
   xmlns:inkscape="http://www.inkscape.org/namespaces/inkscape"
   width="100"
   height="100"
   viewBox="0 0 100 100"
   id="svg2"
   version="1.1"
   inkscape:version="0.91 r13725"
   sodipodi:docname="Square.svg"
   inkscape:export-filename="C:\Users\Daniel\Desktop\LD35\assets\Square.png"
   inkscape:export-xdpi="90"
   inkscape:export-ydpi="90">
  <defs
     id="defs4" />
  <sodipodi:namedview
     id="base"
     pagecolor="#ffffff"
     bordercolor="#666666"
     borderopacity="1.0"
     inkscape:pageopacity="0.0"
     inkscape:pageshadow="2"
     inkscape:zoom="5.6"
     inkscape:cx="36.550242"
     inkscape:cy="61.604824"
     inkscape:document-units="px"
     inkscape:current-layer="layer1"
     showgrid="false"
     units="px"
     inkscape:window-width="1920"
     inkscape:window-height="1001"
     inkscape:window-x="-9"
     inkscape:window-y="-9"
     inkscape:window-maximized="1" />
  <metadata
     id="metadata7">
    <rdf:RDF>
      <cc:Work
         rdf:about="">
        <dc:format>image/svg+xml</dc:format>
        <dc:type
           rdf:resource="http://purl.org/dc/dcmitype/StillImage" />
        <dc:title></dc:title>
      </cc:Work>
    </rdf:RDF>
  </metadata>
  <g
     inkscape:label="Layer 1"
     inkscape:groupmode="layer"
     id="layer1"
     transform="translate(0,-952.36216)">
    <rect
       style="fill:#9e8080;fill-opacity:1"
       id="rect3373"
       width="100"
       height="100"
       x="0"
       y="952.36218"
       ry="0" />
    <path
       style="fill:#483737;fill-opacity:1"
       id="path4200"
       d="m 21.286713,1009.3002 c 12.683903,5.7912 41.43023,4.7879 51.994346,2.6126 0.579031,-0.1288 1.145299,-0.3094 1.717949,-0.4641 6.104846,-1.6095 8.381049,7.024 2.276203,8.6336 l 0,0 c -0.774046,0.2003 -1.54114,0.4298 -2.32214,0.6011 -19.051035,3.1804 -39.908075,3.364 -57.604685,-3.2645 -0.471277,-0.179 -0.8342,-0.5663 -1.251299,-0.8494 -5.137469,-3.6696 -1.376411,-10.3994 5.189626,-7.2655 z"
       inkscape:connector-curvature="0"
       sodipodi:nodetypes="cccccccccc" />
    <path
       style="fill:#483737;fill-opacity:1"
       id="path4202"
       d="m 36.607143,964.4042 c 0,5.94711 0,11.89422 0,17.84133 l 0,1.23287 c 0,6.31345 -8.928572,6.31345 -8.928572,0 l 0,0 0,-1.23287 c 0,-5.94711 0,-11.89422 0,-17.84133 0,-6.31346 8.928572,-6.31346 8.928572,0 z"
       inkscape:connector-curvature="0"
       sodipodi:nodetypes="ccsccccc" />
    <path
       style="fill:#483737;fill-opacity:1"
       id="path4212"
       d="m 54.464285,984.11284 c 0.05152,-5.31771 0.297509,-10.29866 0.352663,-15.23362 0.0013,-0.18802 0.0026,-0.37603 0.004,-0.56404 0.04458,-6.31329 8.972924,-6.25026 8.928349,0.063 l 0,0 -0.0042,0.59679 c -0.01005,5.14292 -0.35517,10.37409 -0.352149,15.13783 0,6.31346 -8.928572,6.31346 -8.928572,0 z"
       inkscape:connector-curvature="0"
       sodipodi:nodetypes="ccccccccc" />
  </g>
  <g
     inkscape:groupmode="layer"
     id="layer2"
     inkscape:label="Layer 2" />
</svg>
